<svg width="500" height="336" viewBox="0 0 500 336" fill="none" xmlns="http://www.w3.org/2000/svg">
<g clip-path="url(#clip0_486_2)">
<path d="M297.509 104.531C298.183 104.913 299.153 105.462 300.333 106.132C302.693 107.472 305.896 109.297 309.264 111.233C316.009 115.113 323.389 119.427 326.02 121.214V121.213C338.084 129.488 350.502 140.536 360.701 152.044C370.909 163.562 378.855 175.5 382.023 185.551C385.21 195.657 388.78 215.768 391.618 234.799C394.456 253.826 396.552 271.702 396.801 277.322C397.055 283.061 399.433 290.403 401.722 296.27C402.87 299.211 404.002 301.798 404.847 303.649C405.269 304.575 405.621 305.318 405.866 305.829C405.916 305.932 405.96 306.026 406.001 306.109L347.497 326.005C340.517 315.853 338.755 313.351 337.27 310.811C336.519 309.526 335.841 308.235 334.592 305.929C333.345 303.627 331.537 300.331 328.535 295.053L328.533 295.051L328.383 294.781C326.862 291.962 326.275 287.993 326.263 283.276C326.25 278.421 326.846 272.85 327.596 267.064C328.344 261.292 329.247 255.297 329.835 249.648C330.423 243.999 330.703 238.65 330.197 234.145C329.685 229.588 327.077 223.587 323.512 217.197C319.936 210.79 315.362 203.929 310.856 197.634C306.35 191.338 301.908 185.599 298.592 181.436C296.934 179.353 295.556 177.665 294.594 176.496C294.113 175.912 293.735 175.457 293.478 175.148C293.365 175.014 293.275 174.907 293.21 174.829L297.154 104.33C297.261 104.391 297.38 104.458 297.509 104.531Z" stroke="white"/>
<path d="M296.724 103.447C296.762 103.429 296.9 103.404 297.108 103.466C297.936 103.948 303.873 107.286 310.276 110.959C316.91 114.764 324.038 118.926 326.616 120.711L326.618 120.712C337.733 128.339 350.103 139.137 360.553 150.734C371.011 162.341 379.505 174.703 382.923 185.451C386.159 195.607 389.729 215.642 392.555 234.649C395.38 253.65 397.452 271.551 397.701 277.421V277.423C397.955 283.011 400.282 290.227 402.534 296.03C404.791 301.85 406.999 306.315 407.053 306.424C407.083 306.483 407.083 306.517 407.053 306.576C407.043 306.597 407.028 306.62 407.011 306.643C406.994 306.665 406.977 306.683 406.962 306.695C406.96 306.697 406.958 306.699 406.956 306.7H406.917L406.838 306.727L347.616 327H347.4C347.302 327 347.26 326.983 347.249 326.978C347.244 326.975 347.245 326.975 347.248 326.978C347.25 326.98 347.25 326.981 347.248 326.977L347.232 326.946L347.213 326.918L344.413 322.818L344.412 322.817L342.064 319.408C337.961 313.443 337.183 312.227 335.675 309.427L334.841 307.865C333.788 305.846 332.199 302.91 329.34 297.854L328.035 295.553C326.107 292.13 325.551 287.149 325.738 281.203C325.924 275.272 326.844 268.474 327.795 261.467C329.051 252.193 330.418 242.447 329.675 235.048L329.596 234.34C329.108 229.907 326.544 224.027 323.027 217.74C319.499 211.433 314.974 204.654 310.506 198.409C306.038 192.163 301.62 186.443 298.301 182.255C296.642 180.161 295.257 178.449 294.278 177.245C293.789 176.644 293.398 176.167 293.129 175.837C292.994 175.671 292.89 175.542 292.817 175.451L292.734 175.347C292.633 175.143 292.601 175.059 292.6 175.003L296.599 103.628L296.6 103.614V103.6C296.6 103.568 296.609 103.547 296.625 103.525C296.646 103.498 296.681 103.469 296.724 103.447ZM296.901 104.973L293.101 174.773L293.09 174.97L293.217 175.121C294.765 176.968 303.504 187.48 312.104 199.688C316.405 205.792 320.665 212.313 323.972 218.38C327.288 224.462 329.615 230.034 330.103 234.257C330.894 241.783 329.608 251.716 328.206 261.529L328.205 261.532C327.305 268.127 326.402 274.853 326.188 280.77C325.975 286.665 326.441 291.862 328.363 295.342L328.366 295.347C332.064 301.844 333.961 305.339 335.157 307.631L335.161 307.639C337.674 312.263 337.687 312.281 344.687 322.581L344.689 322.585L347.189 326.185L347.405 326.495L347.762 326.373L405.663 306.473L406.203 306.287L405.948 305.776C405.055 303.991 402.912 299.384 400.945 293.967C398.973 288.539 397.196 282.349 397 277.38V277.378L396.931 276.163C396.48 269.398 394.442 252.486 391.77 234.676C388.921 215.683 385.34 195.593 382.176 185.649V185.648C379.146 176.153 371.595 164.492 361.589 152.996C351.576 141.492 339.069 130.113 326.083 121.188C321.556 118.07 302.43 107.256 297.645 104.565L296.945 104.17L296.901 104.973Z" fill="#231F20" stroke="white"/>
<path d="M206.69 174.83C206.625 174.908 206.535 175.014 206.423 175.148C206.166 175.457 205.787 175.912 205.306 176.496C204.344 177.665 202.967 179.354 201.309 181.436C197.993 185.599 193.55 191.337 189.043 197.634C184.538 203.929 179.963 210.79 176.388 217.197C172.823 223.587 170.216 229.588 169.704 234.145C169.197 238.65 169.478 243.999 170.066 249.648C170.654 255.297 171.556 261.292 172.304 267.064C173.054 272.85 173.651 278.421 173.638 283.276C173.626 288.145 172.999 292.218 171.367 295.051L171.366 295.053C168.364 300.331 166.556 303.627 165.309 305.929C164.06 308.235 163.382 309.526 162.631 310.811C161.146 313.351 159.382 315.852 152.402 326.004L93.9976 306.109C94.0382 306.025 94.0848 305.932 94.1343 305.829C94.3799 305.318 94.7313 304.575 95.1538 303.649C95.9988 301.798 97.131 299.211 98.2788 296.27C100.568 290.403 102.946 283.061 103.2 277.322C103.448 271.702 105.545 253.826 108.382 234.799C111.221 215.768 114.791 195.657 117.977 185.551C121.146 175.5 129.092 163.562 139.299 152.044C149.498 140.536 161.916 129.488 173.98 121.213L173.981 121.214C176.612 119.427 183.991 115.113 190.737 111.233C194.104 109.297 197.307 107.472 199.667 106.132C200.847 105.462 201.817 104.913 202.492 104.531C202.62 104.459 202.738 104.391 202.844 104.331L206.69 174.83Z" stroke="white"/>
<path d="M203.025 103.346C203.064 103.328 203.196 103.306 203.395 103.362C203.396 103.364 203.398 103.365 203.399 103.367C203.419 103.386 203.44 103.411 203.459 103.44C203.478 103.469 203.491 103.494 203.498 103.512C203.499 103.515 203.499 103.518 203.5 103.519L203.501 103.528L207.499 174.903C207.498 174.958 207.468 175.039 207.373 175.232C207.355 175.254 207.329 175.288 207.289 175.336C207.215 175.426 207.109 175.553 206.974 175.717C206.703 176.043 206.314 176.513 205.824 177.11C204.844 178.305 203.459 180.009 201.8 182.096C198.481 186.271 194.063 191.981 189.594 198.221C185.126 204.46 180.602 211.236 177.073 217.542C173.555 223.829 170.99 229.712 170.503 234.145V234.146C169.695 241.62 171.008 251.588 172.305 261.266C173.256 268.324 174.177 275.122 174.363 281.041C174.55 286.974 173.993 291.929 172.065 295.352C168.366 301.851 166.463 305.357 165.259 307.665C162.774 312.337 162.788 312.316 155.688 322.616L155.688 322.618L152.888 326.718L152.885 326.722C152.795 326.858 152.729 326.93 152.681 326.968C152.644 326.996 152.625 327 152.601 327H152.484L93.2939 306.637C93.205 306.593 93.1485 306.563 93.1035 306.531C93.0605 306.5 93.051 306.483 93.0479 306.476C93.0183 306.417 93.0183 306.383 93.0479 306.324C93.1017 306.216 95.3087 301.776 97.5664 295.969C99.818 290.177 102.145 282.96 102.399 277.322L102.4 277.321C102.649 271.451 104.744 253.551 107.582 234.549C110.42 215.543 113.991 195.506 117.178 185.349L117.177 185.348C120.595 174.6 129.089 162.24 139.547 150.635C149.997 139.037 162.368 128.239 173.483 120.612L173.485 120.611C176.064 118.826 183.19 114.664 189.824 110.859C196.321 107.133 202.338 103.751 203.025 103.346ZM202.255 104.364C197.469 107.056 178.341 117.871 173.816 120.988C160.83 129.913 148.324 141.292 138.311 152.797C128.618 163.933 121.229 175.224 118.021 184.552L117.724 185.448C114.559 195.392 110.98 215.508 108.131 234.513C105.281 253.523 103.153 271.497 102.901 277.177H102.9V277.18C102.704 282.25 100.926 288.465 98.9551 293.891C96.9878 299.307 94.8463 303.89 93.9531 305.677L93.6982 306.187L94.2383 306.373L152.138 326.273L152.495 326.395L152.711 326.085L155.211 322.485L155.213 322.483C162.213 312.282 162.225 312.265 164.838 307.542L164.844 307.531C166.04 305.239 167.935 301.745 171.633 295.249L171.634 295.25C173.611 291.816 174.075 286.612 173.85 280.706C173.68 276.259 173.115 271.349 172.464 266.391L171.796 261.432C170.493 251.709 169.106 241.681 169.897 234.155C170.361 229.933 172.67 224.368 175.973 218.294C179.268 212.235 183.521 205.724 187.821 199.626C196.422 187.43 205.187 176.918 206.783 175.022L206.911 174.87L206.899 174.672L203 104.772L202.955 103.97L202.255 104.364Z" fill="#231F20" stroke="white"/>
<path d="M91.2578 290.636C91.9164 290.632 92.8258 290.735 93.9648 290.938C96.2375 291.345 99.338 292.14 102.994 293.21C110.302 295.348 119.772 298.565 129.157 301.908C138.54 305.25 147.831 308.715 154.776 311.344C158.249 312.658 161.135 313.764 163.152 314.541C164.161 314.929 164.953 315.236 165.492 315.445C165.663 315.511 165.809 315.567 165.928 315.613L163.109 329.803L163.067 330.015L163.193 330.19L163.195 330.193C163.197 330.196 163.201 330.201 163.205 330.207C163.213 330.219 163.226 330.237 163.242 330.261C163.276 330.309 163.326 330.381 163.389 330.474C163.515 330.659 163.696 330.931 163.913 331.27C164.349 331.951 164.929 332.906 165.509 333.997C166.682 336.205 167.8 338.884 167.8 341H167.801C167.705 344.426 167.239 347.855 166.497 351.2L62.335 351.299C63.4495 346.656 64.7134 341.5 65.9082 337.067C67.1627 332.413 68.3242 328.622 69.1445 327.029L69.1475 327.023C70.5441 324.23 73.5407 321.438 76.2461 319.318C77.5895 318.266 78.8441 317.392 79.7627 316.782C80.2215 316.477 80.5962 316.238 80.8555 316.076C80.985 315.995 81.0863 315.933 81.1543 315.891C81.1883 315.871 81.2143 315.855 81.2314 315.845C81.2398 315.84 81.2458 315.835 81.25 315.833C81.2521 315.832 81.2539 315.831 81.2549 315.83H81.2559V315.829L81.4277 315.727L81.4814 315.535V315.534C81.4816 315.533 81.4821 315.532 81.4824 315.531C81.4831 315.529 81.484 315.525 81.4854 315.52C81.4882 315.51 81.4925 315.495 81.498 315.475C81.5092 315.436 81.526 315.377 81.5479 315.3C81.5917 315.145 81.6568 314.918 81.7402 314.628C81.9071 314.047 82.1487 313.212 82.4482 312.199C83.0475 310.172 83.8775 307.43 84.8008 304.566C85.7245 301.702 86.74 298.721 87.71 296.217C88.6891 293.689 89.5979 291.713 90.2969 290.805C90.3017 290.8 90.3489 290.755 90.5117 290.712C90.6824 290.667 90.9278 290.638 91.2578 290.636Z" stroke="white"/>
<path d="M88.9004 315.4L156 335.6" stroke="white"/>
<path d="M89.0762 315.047L89.1143 315.067L89.1553 315.078L156.155 335.378L156.167 335.382L156.179 335.385C156.198 335.39 156.243 335.412 156.284 335.499C156.314 335.562 156.326 335.635 156.324 335.701C156.265 335.782 156.225 335.827 156.188 335.853C156.155 335.876 156.107 335.9 156 335.9H155.874L88.9453 315.621L88.9336 315.618L88.9209 315.614C88.841 315.594 88.7851 315.548 88.7588 315.502C88.7389 315.467 88.7179 315.402 88.7646 315.285L88.7764 315.254L88.7852 315.221C88.7962 315.177 88.8418 315.11 88.9229 315.067C88.9993 315.026 89.0508 315.034 89.0762 315.047Z" fill="#231F20" stroke="white"/>
<path d="M408.739 290.619C409.069 290.623 409.314 290.654 409.483 290.701C409.659 290.749 409.7 290.8 409.7 290.8C410.402 291.737 411.312 293.722 412.29 296.244C413.26 298.744 414.276 301.708 415.199 304.554C416.123 307.399 416.953 310.12 417.553 312.13C417.852 313.135 418.094 313.962 418.261 314.538C418.344 314.825 418.408 315.05 418.452 315.203C418.474 315.279 418.491 315.338 418.502 315.378C418.507 315.397 418.512 315.412 418.515 315.422C418.516 315.426 418.518 315.431 418.519 315.433V315.435L418.52 315.436L418.573 315.627L418.742 315.728L418.743 315.729C418.744 315.73 418.746 315.731 418.748 315.732C418.752 315.735 418.758 315.738 418.767 315.743C418.784 315.753 418.809 315.769 418.843 315.79C418.91 315.831 419.01 315.893 419.139 315.974C419.395 316.137 419.766 316.376 420.222 316.681C421.133 317.292 422.378 318.165 423.716 319.217C426.408 321.336 429.408 324.13 430.855 326.928V326.929C431.676 328.523 432.863 332.317 434.13 336.968C435.337 341.402 436.601 346.559 437.671 351.2H333.501C332.769 347.872 332.392 344.533 332.2 340.999C332.251 338.827 333.373 336.148 334.529 333.959C335.103 332.873 335.674 331.929 336.102 331.255C336.315 330.919 336.493 330.651 336.617 330.467C336.679 330.376 336.727 330.306 336.76 330.258C336.776 330.235 336.789 330.217 336.797 330.206C336.801 330.2 336.804 330.195 336.806 330.192C336.807 330.191 336.807 330.19 336.808 330.189H336.809L336.933 330.013L336.891 329.802L334.071 315.613C334.191 315.566 334.337 315.51 334.509 315.443C335.048 315.233 335.84 314.926 336.849 314.537C338.866 313.757 341.752 312.648 345.225 311.33C352.17 308.693 361.46 305.219 370.843 301.871C380.228 298.522 389.699 295.301 397.006 293.168C400.662 292.1 403.762 291.31 406.034 290.91C407.173 290.709 408.082 290.611 408.739 290.619Z" stroke="white"/>
<mask id="path-9-inside-1_486_2" fill="white">
<path d="M406.7 317.4L346.3 335.7Z"/>
</mask>
<path d="M406.7 317.4L406.41 316.443L346.01 334.743L346.3 335.7L346.59 336.657L406.99 318.357L406.7 317.4Z" fill="white" mask="url(#path-9-inside-1_486_2)"/>
<path d="M406.423 317.084C406.506 317.064 406.613 317.074 406.701 317.115C406.788 317.156 406.811 317.202 406.815 317.221C406.836 317.304 406.827 317.412 406.785 317.501C406.744 317.588 406.698 317.61 406.679 317.615L406.667 317.617L406.655 317.621L346.327 335.9H346.2C346.163 335.9 346.084 335.876 346.004 335.796C345.924 335.716 345.9 335.637 345.9 335.6C345.9 335.504 345.973 335.403 346.059 335.374L346.058 335.373L406.423 317.084Z" fill="#231F20" stroke="white"/>
<path d="M193.5 1H306.5C311.1 1 314.8 4.7 314.8 9.3V250.9C314.8 255.5 311.1 259.2 306.5 259.2H193.5C188.9 259.2 185.2 255.5 185.2 250.9V9.3C185.2 4.7 188.9 1 193.5 1Z" fill="white"/>
<path d="M306.5 260H193.5C188.5 260 184.5 256 184.5 251V9.30005C184.5 4.30005 188.5 0.300049 193.5 0.300049H306.5C311.5 0.300049 315.5 4.30005 315.5 9.30005V250.9C315.5 255.9 311.5 260 306.5 260ZM193.5 1.80005C189.4 1.80005 186 5.10005 186 9.30005V250.9C186 255 189.3 258.4 193.5 258.4H306.5C310.6 258.4 314 255 314 250.9V9.30005C314 5.20005 310.7 1.80005 306.5 1.80005H193.5Z" fill="#231F20"/>
<path d="M308 24.4H192.1V223.1H308V24.4Z" fill="white"/>
<path d="M308 223.9H192.1C191.7 223.9 191.3 223.6 191.3 223.1V24.4001C191.3 24.0001 191.6 23.6001 192.1 23.6001H308C308.4 23.6001 308.8 23.9001 308.8 24.4001V223.1C308.8 223.5 308.4 223.9 308 223.9ZM192.9 222.3H307.2V25.2001H192.8L192.9 222.3Z" fill="#231F20"/>
<path d="M239 232.7H261C263.8 232.7 266.1 235 266.1 237.8V246.2C266.1 249 263.8 251.3 261 251.3H239C236.2 251.3 233.9 249 233.9 246.2V237.8C233.9 235 236.2 232.7 239 232.7Z" fill="white"/>
<path d="M261 252.1H239C235.8 252.1 233.1 249.5 233.1 246.2V237.8C233.1 234.6 235.7 231.9 239 231.9H261C264.2 231.9 266.9 234.5 266.9 237.8V246.2C266.9 249.5 264.2 252.1 261 252.1ZM239 233.5C236.6 233.5 234.7 235.4 234.7 237.8V246.2C234.7 248.6 236.6 250.5 239 250.5H261C263.4 250.5 265.3 248.6 265.3 246.2V237.8C265.3 235.4 263.4 233.5 261 233.5H239Z" fill="#D1D3D4"/>
<path d="M261.7 13H228.7C228.3 13 227.9 12.6 227.9 12.2C227.9 11.8 228.2 11.4 228.7 11.4H261.7C262.1 11.4 262.5 11.7 262.5 12.2C262.5 12.6 262.1 13 261.7 13Z" fill="#D1D3D4"/>
<path d="M270.8 13H266.4C266 13 265.6 12.6 265.6 12.2C265.6 11.8 265.9 11.4 266.4 11.4H270.8C271.2 11.4 271.6 11.8 271.6 12.2C271.5 12.7 271.2 13 270.8 13Z" fill="#D1D3D4"/>
<path d="M308 36.4H192.1C191.7 36.4 191.3 36.1 191.3 35.6C191.3 35.2 191.6 34.8 192.1 34.8H308C308.4 34.8 308.8 35.1 308.8 35.6C308.8 36 308.4 36.4 308 36.4Z" fill="#231F20"/>
<path d="M302.9 44.4H296.5H296.2H249.8C248.1 44.4 246.8 45.7 246.8 47.4V59.1C246.8 60.8 248.1 62.1 249.8 62.1H296.2C297.9 62.1 299.2 60.8 299.2 59.1V48.1L302.9 44.4Z" fill="#D1D3D4"/>
<path d="M203.6 102.5H210H210.3H256.7C258.4 102.5 259.7 103.8 259.7 105.5V123.7C259.7 125.4 258.4 126.7 256.7 126.7H210.3C208.6 126.7 207.3 125.4 207.3 123.7V106.1L203.6 102.5Z" fill="#D1D3D4"/>
<path d="M203.6 161.3H210C210.1 161.3 210.2 161.3 210.3 161.3H265C266.7 161.3 268 162.6 268 164.3V189.6C268 191.3 266.7 192.6 265 192.6H210.3C208.6 192.6 207.3 191.3 207.3 189.6V165L203.6 161.3Z" fill="#D1D3D4"/>
<path d="M302.9 134.2H296.5H296.2H249.8C248.1 134.2 246.8 135.5 246.8 137.2V148.9C246.8 150.6 248.1 151.9 249.8 151.9H296.2C297.9 151.9 299.2 150.6 299.2 148.9V137.9L302.9 134.2Z" fill="#D1D3D4"/>
<path d="M238 66.2001H295C297.3 66.2001 299.1 68.0001 299.1 70.3001V89.6001C299.1 91.9001 297.3 93.7001 295 93.7001H238C235.7 93.7001 233.9 91.9001 233.9 89.6001V70.3001C233.8 68.1001 235.7 66.2001 238 66.2001Z" fill="#D1D3D4"/>
<path d="M205.1 202.7H295C298.6 202.7 301.5 205.6 301.5 209.2C301.5 212.8 298.6 215.7 295 215.7H205.1C201.5 215.7 198.6 212.8 198.6 209.2C198.6 205.6 201.5 202.7 205.1 202.7Z" fill="white"/>
<path d="M294.9 216.5H205C201 216.4 197.8 213 198 208.9C198.1 205.1 201.2 202 205 201.9H294.9C298.9 202 302.1 205.4 301.9 209.5C301.8 213.3 298.7 216.3 294.9 216.5ZM205.1 203.5C201.9 203.5 199.4 206.1 199.4 209.2C199.4 212.3 202 214.9 205.1 214.9H295C298.2 214.9 300.7 212.3 300.7 209.2C300.7 206.1 298.1 203.5 295 203.5H205.1Z" fill="#D1D3D4"/>
<path d="M160.4 316.1C160 316.1 159.6 315.7 159.6 315.3C159.6 315.1 159.7 314.9 159.9 314.7C160.2 314.5 185.3 293.5 187.2 270C188.2 258.3 187.7 246.2 187.3 236.5C186.9 225.8 186.6 218.1 188.2 215.1C189.6 212.5 195.2 204.2 201 195.5C207.4 186 213.9 176.3 216.3 172.2C219.5 166.6 218.1 161.4 215.3 158.6C213.1 156.5 210.3 156 208 157.4L206.3 158.4C197.9 163.5 175.6 176.9 163.4 194.6C163.2 194.8 155.4 203.2 148.7 217.7C148.5 218.1 148.1 218.2 147.7 218.1C147.3 217.9 147.2 217.5 147.3 217.1C154.2 202.4 162.2 193.8 162.2 193.7C174.6 175.8 197.1 162.3 205.5 157.1L207.2 156.1C210.1 154.3 213.7 154.9 216.4 157.5C219.6 160.6 221.3 166.6 217.7 172.9C215.3 177 208.8 186.8 202.4 196.3C196.6 205 191 213.2 189.6 215.8C188.2 218.4 188.5 226.3 188.9 236.4C189.3 246.1 189.7 258.3 188.8 270.1C186.8 294.3 161.2 315.7 160.9 315.9C160.8 316.1 160.6 316.2 160.4 316.1Z" fill="#231F20"/>
<path d="M339.6 316.1C339.4 316.1 339.2 316 339.1 315.9C338.8 315.7 313.2 294.3 311.2 270.1C310.2 258.3 310.7 246.1 311.1 236.4C311.5 226.3 311.8 218.4 310.4 215.8C309 213.2 303.5 205 297.6 196.3C291.2 186.8 284.6 177 282.3 172.9C278.7 166.6 280.3 160.6 283.6 157.5C286.3 154.9 289.9 154.3 292.8 156.1L294.5 157.1C303 162.2 325.5 175.8 337.9 193.8C337.9 193.8 345.9 202.3 352.8 217.1C353 217.5 352.8 217.9 352.4 218.1C352 218.3 351.6 218.1 351.4 217.7C344.6 203.2 336.8 194.8 336.8 194.7C324.5 176.9 302.2 163.5 293.8 158.4L292.1 157.4C289.8 156 287 156.4 284.8 158.6C282 161.3 280.6 166.6 283.8 172.2C286.1 176.3 292.7 186 299.1 195.5C305 204.2 310.5 212.4 311.9 215.1C313.5 218.1 313.2 225.8 312.8 236.5C312.4 246.2 312 258.3 312.9 270C314.8 293.5 339.9 314.5 340.2 314.7C340.5 315 340.6 315.5 340.3 315.8C340.1 316 339.9 316.1 339.6 316.1Z" fill="#231F20"/>
<path d="M119.3 95.7C131.506 95.7 141.4 85.8055 141.4 73.6C141.4 61.3945 131.506 51.5 119.3 51.5C107.095 51.5 97.2002 61.3945 97.2002 73.6C97.2002 85.8055 107.095 95.7 119.3 95.7Z" fill="white"/>
<path d="M110.2 61.7999C109.9 64.7999 110.3 67.8999 111.3 70.7999C111.5 71.5999 112 72.3999 112.6 73.0999C113.4 73.6999 114.3 74.0999 115.3 74.2999C116.9 74.5999 118.5 74.7999 120.1 74.7999C121.8 74.9999 123.5 74.4999 124.9 73.4999C126.5 72.1999 126.3 70.4999 127 68.7999C127.5 67.4999 129 66.9999 129.5 65.5999C129.7 64.7999 129.8 63.9999 129.7 63.2999C129.5 61.1999 128.6 59.1999 127.2 57.5999C125.4 55.6999 122.6 55.0999 120.1 54.9999C117.6 54.8999 115 54.3999 114.8 57.3999C113.9 57.1999 113 57.2999 112.2 57.8999C111 58.7999 110.3 60.2999 110.2 61.7999Z" fill="white"/>
<path d="M120.2 75.4999H120C118.3 75.4999 116.6 75.2999 115 74.9999C113.9 74.8999 112.8 74.3999 111.9 73.5999C111.2 72.8999 110.7 71.9999 110.4 70.9999C109.4 67.9999 109 64.7999 109.2 61.5999C109.3 59.8999 110.1 58.1999 111.4 57.0999C112.1 56.5999 112.9 56.2999 113.8 56.2999C114.5 53.7999 116.9 53.8999 118.8 53.9999H119.8C123.1 53.9999 125.8 54.9999 127.5 56.7999C129 58.4999 130 60.6999 130.2 62.9999C130.3 63.8999 130.3 64.7999 130 65.6999C129.7 66.4999 129.1 67.1999 128.5 67.6999C128.1 67.9999 127.7 68.3999 127.5 68.8999C127.3 69.3999 127.2 69.8999 127 70.4999C126.8 71.8999 126.1 73.0999 125.1 73.9999C123.8 75.0999 122 75.5999 120.2 75.4999ZM111 61.8999C110.7 64.7999 111.1 67.6999 112.1 70.4999C112.3 71.1999 112.6 71.8999 113.1 72.3999C113.7 72.9999 114.5 73.2999 115.4 73.3999C116.9 73.6999 118.5 73.7999 120.1 73.8999C121.6 73.9999 123.1 73.5999 124.3 72.7999C125 72.0999 125.5 71.1999 125.6 70.1999C125.7 69.5999 125.9 68.9999 126.1 68.3999C126.4 67.6999 126.9 67.0999 127.5 66.5999C128 66.1999 128.4 65.7999 128.6 65.1999C128.8 64.5999 128.8 63.8999 128.7 63.1999C128.5 61.2999 127.8 59.3999 126.5 57.8999C124.7 55.8999 121.6 55.5999 120 55.5999C119.7 55.5999 119.3 55.5999 119 55.5999C116.6 55.4999 115.7 55.5999 115.5 57.2999C115.5 57.6999 115.1 58.0999 114.6 57.9999H114.5C113.9 57.7999 113.2 57.9999 112.7 58.3999C111.7 59.3999 111.1 60.6999 111 61.8999Z" fill="#231F20"/>
<path d="M125.6 73.5999L126.7 79.5999C126.7 79.5999 125.3 83.4999 121.3 82.9999C118.9 82.6999 116.8 81.2999 115.6 79.1999L114.5 68.2999C114.5 68.2999 117.2 66.4999 115.7 60.2999C119 61.2999 122.5 61.3999 125.9 60.5999C125.9 60.5999 128.4 67.1999 128.2 70.1999C128.2 71.7999 127.1 73.2999 125.6 73.5999Z" fill="white"/>
<path d="M121.9 83.7999C121.6 83.7999 121.4 83.7999 121.1 83.7999C118.5 83.3999 116.1 81.8999 114.8 79.5999C114.8 79.4999 114.7 79.3999 114.7 79.2999L113.6 68.3999C113.6 68.0999 113.7 67.7999 113.9 67.5999C114 67.4999 116.1 65.8999 114.8 60.4999C114.7 60.1999 114.8 59.8999 115 59.6999C115.2 59.4999 115.5 59.3999 115.8 59.4999C119 60.4999 122.3 60.5999 125.6 59.7999C126 59.6999 126.4 59.8999 126.5 60.2999C126.6 60.5999 129 67.0999 128.9 70.2999C128.9 71.9999 128 73.4999 126.4 74.1999L127.4 79.4999C127.4 79.5999 127.4 79.7999 127.4 79.8999C126.6 82.2999 124.4 83.7999 121.9 83.7999ZM116.3 78.8999C117.4 80.6999 119.2 81.7999 121.3 82.0999C123.2 82.2999 125 81.1999 125.7 79.3999L124.7 73.6999C124.7 73.4999 124.7 73.2999 124.8 73.0999C124.9 72.8999 125.1 72.7999 125.3 72.7999C126.5 72.4999 127.3 71.3999 127.2 70.1999C127.3 67.8999 125.8 63.2999 125.2 61.5999C122.3 62.1999 119.4 62.0999 116.6 61.4999C117.3 65.7999 115.9 67.8999 115.2 68.6999L116.3 78.8999Z" fill="#231F20"/>
<path d="M121.2 64.7999C121.2 64.7999 123.4 67.9999 122.9 68.5999C122.4 69.1999 120.9 68.7999 120.9 68.7999" fill="white"/>
<path d="M121.8 69.7C121.4 69.7 121 69.6 120.7 69.6C120.3 69.5 120 69.1 120.1 68.7C120.2 68.3 120.6 68 121 68.1C121.3 68.2 121.7 68.2 122 68.2C121.6 67.2 121.1 66.2 120.4 65.3C120.2 64.9 120.3 64.5 120.6 64.2C121 64 121.4 64.1 121.7 64.4C124.2 68.1 123.6 68.8 123.3 69.1C123 69.5 122.4 69.7 121.8 69.7Z" fill="#231F20"/>
<path d="M119.123 65.0959C119.344 65.0891 119.51 64.6809 119.495 64.1841C119.48 63.6872 119.289 63.29 119.068 63.2968C118.847 63.3036 118.68 63.7118 118.696 64.2086C118.711 64.7054 118.902 65.1027 119.123 65.0959Z" fill="#231F20"/>
<path d="M124.124 64.7971C124.344 64.7903 124.511 64.382 124.496 63.8852C124.48 63.3884 124.289 62.9912 124.068 62.998C123.847 63.0048 123.681 63.413 123.696 63.9098C123.711 64.4066 123.903 64.8039 124.124 64.7971Z" fill="#231F20"/>
<path d="M116.7 66.3999C116.3 65.7999 115.8 65.4 115.2 65C114.9 64.8 114.6 64.7 114.2 64.7C113.9 64.7 113.6 64.8 113.4 65C112.7 65.5 112.2 66.4 112.1 67.2C112.1 67.6 112.1 67.9999 112.3 68.3999C112.6 68.9999 113.1 69.5 113.6 69.7C114.2 70 114.8 70.2 115.4 70.3" fill="white"/>
<path d="M115.4 71.1999H115.2C114.5 71.0999 113.8 70.7999 113.2 70.4999C112.4 70.0999 111.8 69.4999 111.5 68.6999C111.3 68.1999 111.2 67.5999 111.3 67.0999C111.4 65.9999 112 64.8999 112.9 64.2999C113.3 63.9999 113.7 63.7999 114.1 63.7999C114.6 63.7999 115.2 63.8999 115.6 64.2999C116.3 64.6999 116.9 65.2999 117.3 65.8999C117.6 66.2999 117.5 66.6999 117.1 66.9999C116.7 67.2999 116.2 67.1999 116 66.7999C115.7 66.2999 115.2 65.8999 114.8 65.5999C114.6 65.4999 114.4 65.3999 114.2 65.3999C114 65.3999 113.9 65.4999 113.8 65.5999C113.2 65.9999 112.9 66.5999 112.8 67.2999C112.8 67.5999 112.8 67.8999 112.9 68.0999C113.1 68.4999 113.5 68.7999 113.9 68.9999C114.4 69.1999 115 69.3999 115.6 69.4999C116 69.5999 116.3 69.9999 116.2 70.3999C116.2 70.3999 116.2 70.3999 116.2 70.4999C116.1 70.9999 115.8 71.1999 115.4 71.1999Z" fill="#231F20"/>
<path d="M124.8 70.5L119.5 71C120 71.8 121 72.4 122 72.4C123.5 72.4 124.8 70.5 124.8 70.5Z" fill="#231F20"/>
<path d="M200.9 63.7H149.5C149.1 63.7 148.7 63.4 148.6 63C148.6 62.6 148.9 62.2 149.3 62.1C149.4 62.1 149.4 62.1 149.5 62.1H200.9C201.3 62.1 201.6 62.5 201.6 63C201.5 63.3 201.2 63.6 200.9 63.7Z" fill="white"/>
<path d="M200.9 77.2H149.5C149.1 77.2 148.7 76.9 148.7 76.4C148.7 76 149 75.6 149.5 75.6H200.9C201.3 75.6 201.7 75.9 201.7 76.4C201.6 76.9 201.3 77.2 200.9 77.2Z" fill="white"/>
<path d="M188.6 90.8H149.5C149.1 90.8 148.7 90.5 148.7 90C148.7 89.6 149 89.2 149.5 89.2H188.6C189 89.2 189.4 89.6 189.4 90C189.3 90.4 189 90.8 188.6 90.8Z" fill="white"/>
<path d="M318.6 65.6C330.806 65.6 340.7 55.7055 340.7 43.5C340.7 31.2945 330.806 21.4 318.6 21.4C306.395 21.4 296.5 31.2945 296.5 43.5C296.5 55.7055 306.395 65.6 318.6 65.6Z" fill="white"/>
<path d="M400.1 33.5H348.7C348.3 33.5 348 33.1 348 32.6C348 32.2 348.3 31.9 348.7 31.9H400.1C400.5 31.9 400.8 32.3 400.8 32.8C400.8 33.2 400.5 33.5 400.1 33.5Z" fill="white"/>
<path d="M400.1 47.1H348.7C348.3 47.1 348 46.7 348 46.2C348 45.8 348.3 45.5 348.7 45.5H400.1C400.5 45.5 400.8 45.9 400.8 46.4C400.8 46.7 400.5 47 400.1 47.1Z" fill="white"/>
<path d="M387.8 60.6H348.7C348.3 60.6 347.9 60.3 347.9 59.8C347.9 59.4 348.2 59 348.7 59H387.8C388.2 59 388.6 59.3 388.6 59.8C388.6 60.3 388.2 60.6 387.8 60.6Z" fill="white"/>
<path d="M314.3 25.2H314.9C315.8 25.4 316.7 25.7 317.6 26.1C319 25.1 320.9 25.3 322.6 25.9C327.8 27.8 336.8 39.1 331.7 44.6C330.5 45.7 329 46.3 327.4 46.4C323 47.1 318.6 47.4 314.2 47.1C312.6 47.1 311 46.8 309.6 46.1C305.3 43.7 307.8 34.4 309.5 30.8C310.2 29.1 311.2 27.6 312.3 26.1C312.7 25.6 313.5 25.3 314.3 25.2Z" fill="white"/>
<path d="M317.7 47.9C316.5 47.9 315.3 47.9 314.1 47.8C312.4 47.8 310.7 47.4 309.1 46.7C304.3 44.1 306.7 34.7 308.7 30.5C309.4 28.7 310.4 27.1 311.7 25.6C312.4 25 313.3 24.6 314.2 24.5C314.4 24.5 314.7 24.5 314.9 24.5C315.8 24.7 316.7 24.9 317.6 25.3C319.3 24.6 321.2 24.5 322.8 25.2C326.6 26.6 332.2 32.5 333.6 38.1C334.3 40.9 333.8 43.4 332.2 45.1C330.9 46.3 329.3 47 327.5 47.1C324.2 47.7 321 47.9 317.7 47.9ZM314.4 25.9C313.8 25.9 313.2 26.2 312.7 26.6C311.6 27.9 310.7 29.4 310 31C308.1 35 306.2 43.4 309.8 45.4C311.2 46 312.6 46.4 314.2 46.4C318.6 46.7 322.9 46.4 327.3 45.7C328.7 45.6 330.1 45 331.2 44.1C332.5 42.7 332.8 40.8 332.2 38.4C330.9 33.3 325.8 27.8 322.3 26.5C321.5 26.2 319.4 25.6 318 26.6C317.7 26.8 317.4 26.8 317.1 26.6C316.4 26.3 315.6 26.1 314.8 25.9H314.4Z" fill="#231F20"/>
<path d="M313.5 45.6L312.4 51.6C312.4 51.6 312.3 55.1 316.2 54.8C318.5 54.6 320.6 53.4 322 51.5L323.2 44.1C323.8 41.3 324.3 38.5 324.6 35.7C321.7 36.6 318.1 33 317.2 30.6C316.7 32.1 317.1 33.7 318.1 34.9C316.5 34.3 315.2 33 314.7 31.3C313.8 32 313 32.7 312.3 33.5C311.7 34.4 311.2 35.4 310.8 36.5C310.2 38.4 309.8 41.2 310.7 43C311.2 44.1 312.2 45.1 313.5 45.6Z" fill="white"/>
<path d="M315.8 55.5C314.7 55.6 313.7 55.2 312.9 54.5C312.1 53.7 311.7 52.7 311.7 51.6C311.7 51.5 312.4 47.5 312.7 46C311.5 45.3 310.6 44.3 310 43.1C308.8 40.8 309.6 37.4 310.1 36.1C310.4 35 311 33.9 311.7 32.9C311.7 32.9 314 30.3 314.8 30.4C315.1 30.5 315.3 30.6 315.4 30.9C315.6 31.6 315.9 32.2 316.4 32.7C316.2 31.9 316.3 31 316.5 30.2C316.6 29.8 317.1 29.6 317.4 29.8C317.6 29.9 317.8 30 317.8 30.2C318.6 32.3 321.9 35.7 324.3 34.9C324.5 34.8 324.8 34.9 325 35C325.2 35.1 325.3 35.4 325.3 35.6C325.1 37.6 324.9 39.5 324.4 41.5C324.2 42.4 324.1 43.3 323.9 44.1L322.7 51.5C322.7 51.6 322.7 51.7 322.6 51.8C321.2 53.9 318.8 55.3 316.3 55.5H315.8ZM313.1 51.7C313.2 52.4 313.4 53 313.9 53.5C314.5 54 315.4 54.2 316.2 54.1C318.3 53.9 320.1 52.9 321.3 51.2L322.5 43.9C322.6 43 322.8 42.1 323 41.2C323.3 39.6 323.6 38 323.8 36.4C321.6 36.5 319.3 34.8 317.9 33C318.1 33.5 318.3 33.9 318.6 34.3C318.9 34.6 318.8 35 318.6 35.3C318.4 35.5 318.1 35.5 317.9 35.4C316.4 34.9 315.1 33.8 314.4 32.3C313.8 32.8 313 33.6 312.9 33.7C312.3 34.5 311.9 35.5 311.6 36.4C310.8 38.9 310.8 41.1 311.4 42.3C311.9 43.4 312.7 44.3 313.8 44.7C314.2 44.8 314.4 45.2 314.3 45.5C314.2 45.8 313.1 51.5 313.1 51.7Z" fill="#231F20"/>
<path d="M322.9 39.7C323.1 39.3 323.4 38.9 323.8 38.7C324.2 38.5 324.6 38.4 325 38.3C325.2 38.2 325.5 38.2 325.7 38.3C325.9 38.3 326 38.4 326.1 38.5C326.4 38.7 326.7 39.1 326.7 39.4C326.7 39.7 326.7 40 326.6 40.3C326.5 40.6 326.4 40.9 326.2 41.2C325.8 41.8 325.2 42.2 324.6 42.4C323.9 42.6 323.2 42.4 322.6 42" fill="white"/>
<path d="M324.1 43.2C323.5 43.2 322.9 43 322.3 42.7C322 42.5 321.9 42.1 322.1 41.8C322.3 41.5 322.7 41.4 322.9 41.6C323.3 41.9 323.9 42 324.4 41.9C324.9 41.8 325.4 41.5 325.7 41C325.9 40.8 326 40.5 326 40.2C326.1 40 326.1 39.8 326.1 39.6C326 39.4 325.9 39.2 325.7 39C325.6 38.9 325.6 38.9 325.5 38.9C325.4 38.9 325.2 38.9 325.1 38.9C324.8 39 324.4 39.1 324.1 39.2C323.8 39.4 323.6 39.6 323.5 39.9C323.4 40.2 323 40.4 322.7 40.3C322.4 40.2 322.2 39.8 322.3 39.5V39.4C322.5 38.8 322.9 38.4 323.5 38.1C323.9 37.9 324.4 37.7 324.9 37.6C325.2 37.5 325.6 37.5 325.9 37.6C326.1 37.7 326.3 37.8 326.5 37.9C326.9 38.2 327.3 38.7 327.4 39.2C327.5 39.6 327.4 40 327.3 40.4C327.2 40.8 327 41.2 326.8 41.5C326.3 42.2 325.6 42.7 324.8 42.9C324.7 43.2 324.4 43.2 324.1 43.2Z" fill="#231F20"/>
<path d="M315.3 36.6C315.3 36.6 312.8 39.1 313.1 39.7C313.4 40.3 314.8 40.2 314.8 40.2" fill="white"/>
<path d="M314.6 40.9C313.8 41 313 40.7 312.5 40.1C312.3 39.8 311.9 39 314.8 36.2C315.1 35.9 315.5 35.9 315.8 36.2C316.1 36.5 316.1 36.9 315.8 37.2C315.1 37.9 314.4 38.6 313.9 39.5C314.2 39.6 314.5 39.6 314.9 39.6C315.3 39.6 315.6 39.9 315.6 40.3C315.6 40.7 315.3 41 315 41H314.6V40.9Z" fill="#231F20"/>
<path d="M318.971 37.6078C319.133 37.2568 319.061 36.8784 318.811 36.7625C318.56 36.6467 318.225 36.8373 318.063 37.1883C317.901 37.5392 317.973 37.9176 318.223 38.0335C318.474 38.1493 318.809 37.9587 318.971 37.6078Z" fill="#231F20"/>
<path d="M313.69 36.6522C313.852 36.3012 313.78 35.9228 313.529 35.807C313.279 35.6912 312.944 35.8817 312.782 36.2327C312.62 36.5836 312.691 36.9621 312.942 37.0779C313.193 37.1938 313.528 37.0031 313.69 36.6522Z" fill="#231F20"/>
<path d="M312.6 41.3L316.9 41.5C316.9 42.6 316 43.4 315 43.4C314.9 43.4 314.7 43.4 314.6 43.4C313.5 43.4 312.7 42.5 312.6 41.3Z" fill="#231F20"/>
</g>
<defs>
<clipPath id="clip0_486_2">
<rect width="500" height="336" fill="white"/>
</clipPath>
</defs>
</svg>
