<svg width="634" height="645" viewBox="0 0 634 645" fill="none" xmlns="http://www.w3.org/2000/svg">
<path d="M180.372 360.926C183.146 364.757 229.121 372.446 234.218 373C232.215 367.921 224.673 343.33 221.912 340.521C219.151 337.712 190.165 325.496 180.385 318.611C179.922 326.409 177.58 357.085 180.372 360.926Z" fill="#FF8000"/>
<path d="M292.362 248.003C286.263 253.366 277.095 262.515 277.086 265.205C277.06 272.987 293.57 288.921 295.824 289.85C298.077 290.779 307.48 287.312 316.815 280.533C308.817 275.009 293.839 258.484 292.362 248.003Z" fill="#FF8000"/>
<path d="M91.8123 205.133C89.8685 191.591 90.1782 177.813 92.7284 164.375C84.6227 164.375 70.2404 164.588 68.573 166.665C65.1399 170.935 66.6203 195.28 67.7108 197.496C68.8012 199.711 80.4225 203.936 91.8123 205.133Z" fill="#FF8000"/>
<path d="M188.028 215.936C189.169 211.054 190.421 205.832 191.832 201.101C192.361 199.311 194.051 199.318 193.591 201.511C189.184 221.65 185.993 242.044 184.037 262.58C188.043 263.492 195.48 265.511 198.47 266.424C199.17 258.071 200.055 250.112 201.088 242.53C197.572 222.857 196.016 190.02 198.714 173.137C166.38 175.427 105.665 170.615 94.6615 169.738C93.1389 180.024 92.9492 190.469 94.0973 200.805C102.447 201.466 160.442 209.354 188.028 215.936Z" fill="#FF8000"/>
<path d="M318.978 369.995C316.711 366.625 294.172 308.007 292.293 294.414C290.99 296.739 285.953 306.54 280.849 308.346C275.745 310.152 267.852 305.591 261.632 297.345C255.413 289.099 259.255 280.159 261.192 275.67C262.739 272.093 272.252 268.033 273.973 267.301C273.735 265.908 273.789 264.479 274.132 263.109C275.133 259.98 281.955 252.95 284.821 250.805C284.241 247.406 283.432 239.805 283.062 234.709C279.546 233.313 274.943 231.949 271.795 230.952C270.844 230.646 270.486 229.211 272.515 229.504C282.915 232.264 293.141 235.661 303.137 239.679C304.69 237.776 306.37 235.984 308.165 234.316C309.591 233.277 310.983 233.89 309.414 235.461C308.403 236.47 298.376 249.928 296.791 251.789C298.005 256.526 309.978 270.226 316.023 275.164C318.242 273.483 350.507 250.009 345.384 232.758C339.697 213.608 290.543 186.641 281.549 182.967C264.955 204.752 251.314 233.277 241.259 267.027C239.407 300.651 242.26 334.372 249.732 367.179C251.612 375.368 322.452 375.161 318.978 369.995Z" fill="#FF8000"/>
<path d="M217.664 161.495C217.052 158.954 206.468 164.607 202.195 169.687C197.922 174.766 200.702 221.677 202.477 232.748C208.928 191.775 218.495 164.927 217.664 161.495Z" fill="#FF8000"/>
<path d="M278.386 177.339C275.504 171.328 267.592 165.607 266.432 167.019C255.971 179.765 245.618 212.895 242.067 255.191C251.032 229.742 259.366 207.138 276.031 185.531C278.611 182.187 280.358 181.451 278.386 177.339Z" fill="#FF8000"/>
<path d="M590.143 485.762C588.151 490.991 585.344 495.859 581.828 500.178C581.166 501.004 581.372 503.777 584.202 501.468C588.246 497.25 591.257 492.123 592.993 486.501C593.614 484.463 591.497 482.883 590.143 485.762Z" fill="#C1C1C1"/>
<path d="M417.758 502.626C371.27 540.136 320.268 537.134 284.821 483.883C283.093 481.286 281.533 482.293 280.126 484.402C239.826 544.777 156.442 551.978 113.121 494.115C111.942 492.542 109.599 492.735 107.935 496.373C96.8397 520.589 74.9064 533.006 49.6732 534.396C49.2645 534.421 48.8818 534.608 48.6072 534.917C48.3326 535.226 48.1879 535.633 48.204 536.049C48.2202 536.465 48.396 536.858 48.6937 537.144C48.9914 537.43 49.3874 537.586 49.7969 537.579C69.3811 538.849 104.067 521.573 111.327 497.179C156.382 558.164 243.173 546.148 282.938 486.753C314.704 536.005 365.228 549.073 419.796 505.029C421.121 503.955 419.219 501.449 417.758 502.626Z" fill="#C1C1C1"/>
<path d="M570.999 514.252C564.098 521.876 555.58 525.969 545.053 529.329C544.688 529.451 544.381 529.707 544.192 530.046C544.002 530.386 543.943 530.785 544.027 531.166C544.11 531.547 544.33 531.883 544.643 532.108C544.956 532.334 545.341 532.433 545.722 532.386C553.672 531.528 568.977 523.14 573.462 516.29C575.561 513.098 573.006 512.036 570.999 514.252Z" fill="#C1C1C1"/>
<path d="M525.902 534.424C487.719 538.914 464.372 524.517 446.303 508.624C446.063 508.469 445.777 508.405 445.495 508.442C445.213 508.48 444.953 508.617 444.76 508.83C444.567 509.042 444.454 509.317 444.44 509.606C444.426 509.895 444.512 510.18 444.683 510.411C461.392 531.918 498.497 544.483 526.358 537.059C528.362 537.027 527.867 533.737 525.902 534.424Z" fill="#C1C1C1"/>
<path d="M226.211 125.098C226.981 125.743 228.306 124.882 227.669 123.901C224.863 119.593 221.554 114.623 222.502 109.092C223.561 102.91 229.774 102.445 235.141 105.928C239.671 108.866 243.139 113.082 248.455 114.671C253.771 116.261 259.844 116.432 265.088 119.109C268.381 120.789 267.494 122.721 264.929 126.262C263.634 128.02 262.08 129.565 260.323 130.842C252.167 131.448 234.199 132.074 226.658 127.907C213.807 142.929 253.026 139.639 261.29 133.712C262.961 132.099 264.809 130.658 266.299 128.903C271.967 122.237 271.241 118.69 263.874 115.81C256.506 112.93 249.317 113.594 243.779 109.747C240.948 107.78 238.507 105.254 235.553 103.487C230.722 100.601 223.405 100.323 220.857 106.438C219.844 109.739 219.812 113.271 220.764 116.59C221.717 119.91 223.611 122.87 226.211 125.098Z" fill="white"/>
<path d="M234.788 115.494C233.593 109.915 227.954 111.059 231.482 119.686C232.557 122.328 236.107 121.647 234.788 115.494Z" fill="white"/>
<path d="M243.208 144.648C245.265 145.445 245.608 141.2 244.07 140.73C242.936 140.384 241.595 144.022 243.208 144.648Z" fill="white"/>
<path d="M236.481 140.017C235.234 142.366 234.548 144.981 234.478 147.65C234.865 149.208 241.189 148.837 239.258 147.186C238.57 146.599 236.323 147.366 236.218 146.883C236.566 144.78 237.083 142.71 237.765 140.694C238.114 139.665 237.033 139.152 236.481 140.017Z" fill="white"/>
<path d="M231.726 143.68C233.483 143.961 233.679 140.265 232.218 140.104C231.092 140.123 230.322 143.458 231.726 143.68Z" fill="white"/>
<path d="M254.196 181.738C260.038 176.398 260.596 165.936 259.962 157.454C267.453 153.662 268.753 141.355 262.213 140.658C262.282 139.097 262.188 137.533 261.931 135.992C259.54 137.351 256.963 138.339 254.285 138.923C254.557 141.768 254.118 144.637 253.01 147.264C251.902 149.89 250.159 152.19 247.945 153.949C245.282 151.415 241.869 149.85 238.239 149.5C234.609 149.15 230.968 150.034 227.885 152.014C227.963 148.004 228.398 144.011 229.185 140.081C229.353 139.223 226.966 135.624 225.932 147.234C225.755 149.237 215.493 169.487 219.624 177.852C224.788 188.25 244.984 190.165 254.196 181.738ZM262.121 143.038C266.128 144.135 264.53 152.41 259.712 154.719C259.381 151.766 258.917 148.829 258.323 145.918C259.065 144.97 260.736 142.68 262.108 143.055L262.121 143.038ZM238.13 156.361C239.879 156.455 241.63 156.225 243.297 155.68C244.949 154.823 245.7 156.067 244.546 157.293C243.675 158.231 241.24 158.318 238.305 157.99C236.108 157.761 235.848 156.413 238.13 156.361Z" fill="white"/>
<path d="M46.7726 185.566C47.3654 184.686 46.9501 183.009 45.438 183.69C43.9259 184.37 40.5943 186.486 39.919 185.479C38.8856 183.948 40.3755 179.897 38.4767 179.997C36.8917 180.084 37.0914 183.448 37.1231 185.234C37.2214 190.862 45.438 187.56 46.7726 185.566Z" fill="white"/>
<path d="M63.3174 189.788C59.9255 190.333 55.0025 193.078 53.6648 193.116C52.327 193.155 47.1568 188.979 38.5661 190.469C38.297 190.541 38.0636 190.711 37.9106 190.948C37.7576 191.184 37.6958 191.469 37.7371 191.749C37.7783 192.029 37.9197 192.284 38.1342 192.464C38.3486 192.644 38.621 192.738 38.8989 192.726C51.3634 192.242 49.0239 198.209 57.3578 195.193C59.6813 194.528 61.9362 193.636 64.0909 192.529C65.3018 191.755 65.0768 189.508 63.3174 189.788Z" fill="white"/>
<path d="M49.0428 184.793C48.8653 185.973 50.5359 186.118 50.9448 185.151C51.3121 183.934 51.261 182.627 50.8 181.444C50.339 180.261 49.4956 179.273 48.4088 178.643C43.7648 175.595 24.656 173.921 20.1039 171.773C26.8021 172.006 33.7349 172.741 40.3222 172.812C47.6861 172.905 55.1229 171.935 62.4171 173.347C62.5867 173.393 62.7635 173.404 62.9373 173.38C63.1112 173.356 63.2787 173.297 63.4303 173.207C63.5819 173.118 63.7146 172.998 63.8209 172.856C63.9271 172.714 64.0049 172.552 64.0496 172.38C64.0944 172.207 64.1053 172.027 64.0817 171.85C64.0581 171.674 64.0005 171.503 63.9122 171.349C63.8239 171.195 63.7066 171.06 63.567 170.952C63.4274 170.843 63.2682 170.764 63.0986 170.719C57.8713 169.319 45.5305 170.503 38.8608 170.271C32.3211 170.045 25.4136 168.9 18.9088 169.303C14.5659 169.564 15.2379 172.622 18.6267 174.06C23.9079 176.317 37.0127 178.185 43.2386 179.426C46.0662 179.955 49.5881 181.113 49.0428 184.793Z" fill="white"/>
<path d="M274.553 296.055C274.017 293.698 270.704 296.2 272.039 301.189C272.328 302.582 273.148 303.8 274.32 304.577C275.491 305.355 276.918 305.627 278.287 305.333C281.022 304.231 283.308 302.215 284.767 299.615C285.03 298.703 284.348 298.174 283.499 298.451C281.597 299.061 278.702 303.289 276.715 302.779C273.307 301.912 274.813 297.203 274.553 296.055Z" fill="white"/>
<path d="M263.091 277.853C261.306 280.756 259.182 287.954 261.423 290.963C261.569 291.159 261.77 291.304 262 291.379C262.23 291.453 262.477 291.453 262.707 291.378C262.937 291.303 263.138 291.158 263.283 290.961C263.428 290.765 263.509 290.528 263.516 290.282C263.015 288.319 263.051 286.254 263.62 284.31C266.058 274.635 270.651 276.995 275.698 271.61C275.88 271.439 275.998 271.21 276.03 270.96C276.063 270.711 276.008 270.458 275.876 270.245C275.744 270.032 275.543 269.874 275.308 269.796C275.072 269.719 274.818 269.729 274.588 269.823C270.203 271.57 266.269 274.317 263.091 277.853Z" fill="white"/>
<path d="M279.546 299.135C282.595 293.221 282.532 300.399 289.516 293.288C294.784 287.919 291.063 287.532 290.375 288.128C289.151 289.173 286.507 293.482 283.819 293.995C282.621 294.224 281.017 293.614 279.406 294.994C278.856 295.462 278.412 296.048 278.108 296.709C277.804 297.371 277.647 298.092 277.647 298.822C277.682 299.036 277.781 299.233 277.932 299.386C278.082 299.538 278.276 299.639 278.486 299.674C278.696 299.708 278.911 299.675 279.101 299.578C279.291 299.482 279.447 299.327 279.546 299.135Z" fill="white"/>
<path d="M266.596 288.422C264.079 287.132 263.204 296.565 266.295 295.575C267.633 295.149 266.977 293.556 266.875 292.995C266.504 290.805 267.645 288.96 266.596 288.422Z" fill="white"/>
<path d="M267.839 296.184C267.823 300.815 270.949 301.551 270.616 298.832C270.291 296.96 270.364 295.039 270.828 293.198C271.186 291.702 267.864 291.176 267.839 296.184Z" fill="white"/>
<path d="M158.756 367.528C158.972 362.571 159.549 345.369 159.951 337.929C168.425 337.606 168.665 337.483 169.604 332.401C170.09 329.813 170.331 327.183 170.323 324.548C170.304 321.723 167.562 321.868 167.388 324.103C167.214 326.338 167.144 334.02 165.736 334.1C156.472 334.559 147.186 334.296 137.961 333.314C135.149 333.03 135.586 325.838 135.2 323.1C134.813 320.362 132.81 319.875 132.28 322.832C132.065 324.983 132.148 327.155 132.527 329.282C133.827 337.087 133.757 336.545 142.9 337.171C142.9 347.613 144.615 372.836 145.119 376.783C145.344 378.576 147.563 378.231 147.525 376.445C147.3 365.015 146.225 349.974 145.556 337.422C149.402 337.745 153.253 337.93 157.108 337.977C156.756 342.698 156.299 362.516 156.157 367.308C155.979 373.249 158.515 373.087 158.756 367.528Z" fill="white"/>
<path d="M464.626 443.412C471.794 444.518 487.479 445.511 488.956 445.521C492.189 445.54 493.999 442.619 488.956 442.319C481.836 441.922 471.131 440.851 464.23 440.061C462.147 439.829 462.372 443.064 464.626 443.412Z" fill="white"/>
<path d="M391.212 434.862C398.253 437.142 427.16 439.893 434.457 440.442C436.676 440.609 437.256 437.12 435.002 436.865C422.17 435.407 403.385 433.427 391.618 432.234C390.299 432.099 389.982 434.463 391.212 434.862Z" fill="white"/>
<path d="M516.168 442.641C514.411 442.615 514.411 445.444 516.168 445.773C531.016 446.593 545.901 446.473 560.735 445.415C559.441 469.331 552.642 476.007 555.907 476.736C556.162 476.794 556.428 476.767 556.667 476.66C556.906 476.552 557.105 476.37 557.235 476.139C561.121 470.596 564.209 450.085 564.142 443.483C564.142 441.819 562.386 441.89 562.263 441.89C548.755 442.148 529.675 442.838 516.168 442.641Z" fill="white"/>
<path d="M397.517 480.525C327.888 471.034 258.928 458.898 192.627 434.366C189.101 433.099 185.755 431.364 182.677 429.206C182.407 428.981 182.062 428.872 181.714 428.902C181.367 428.932 181.045 429.098 180.816 429.366C180.587 429.634 180.47 429.981 180.488 430.336C180.507 430.69 180.661 431.022 180.917 431.263C185.989 435.852 192.678 438.007 198.901 440.383C262.095 464.523 329.907 477.148 396.832 483.985C399.102 484.24 399.708 480.848 397.517 480.525Z" fill="white"/>
<path d="M252.033 492.271C247.614 491.135 243.062 490.52 238.602 489.607C225.011 486.565 211.615 482.688 198.485 477.997C197.151 477.571 196.155 479.771 197.484 480.358C215.927 488.504 245.265 495.193 251.596 495.454C251.993 495.477 252.384 495.347 252.691 495.09C252.998 494.833 253.2 494.468 253.255 494.067C253.31 493.666 253.215 493.259 252.988 492.926C252.762 492.594 252.421 492.36 252.033 492.271Z" fill="white"/>
<path d="M163.52 374.745C220.602 403.989 304.474 421.349 366.248 432.747C368.499 433.163 369.025 429.573 366.778 429.17C294.438 416.131 232.211 403.312 165.613 371.046C162.217 369.401 161.992 370.42 159.127 373.423C143.942 389.328 119.162 396.227 98.3705 401.912C96.8045 402.341 96.1927 402.735 96.367 405.366C98.0154 430.26 113.168 487.075 128.184 507.505C129.081 508.721 131.468 507.418 130.768 506.073C117.356 480.322 106.562 451.829 99.3849 404.954C119.182 401.7 145.727 391.647 160.369 377.18C161.777 414.932 172.97 491.509 191.752 521.489C192.881 523.288 195.239 522.276 194.181 520.292C176.232 486.652 165.945 421.072 163.52 374.745Z" fill="white"/>
<path d="M465.504 486.675C458.473 486.675 444.284 485.734 433.088 484.885C431.68 484.779 431.541 487.143 432.894 487.372C443.758 489.13 454.754 489.902 465.751 489.678C468.741 489.41 469.232 486.675 465.504 486.675Z" fill="white"/>
<path d="M155.697 428.264C142.954 434.814 129.329 439.412 115.264 441.909C113.838 442.167 114.034 444.557 115.492 444.489C130.155 443.102 144.367 438.597 157.21 431.267C157.459 430.998 157.62 430.657 157.672 430.291C157.723 429.925 157.661 429.551 157.496 429.222C157.33 428.893 157.068 428.624 156.746 428.453C156.424 428.281 156.058 428.215 155.697 428.264Z" fill="white"/>
<path d="M548.514 495.296C545.325 504.126 541.305 512.143 537.967 520.773C537.469 522.063 539.289 523.369 540.094 522.095C544.649 513.988 548.469 505.475 551.506 496.663C552.245 494.622 549.252 493.254 548.514 495.296Z" fill="white"/>
<path d="M159.669 477.732C150.468 482.006 140.749 485.013 130.768 486.675C130.429 486.779 130.138 487.006 129.951 487.312C129.764 487.618 129.693 487.983 129.752 488.339C129.81 488.695 129.993 489.016 130.268 489.244C130.543 489.472 130.889 489.591 131.243 489.578C141.704 488.147 151.886 485.083 161.428 480.493C163.333 479.616 161.568 476.836 159.669 477.732Z" fill="white"/>
<path d="M617.57 541.8C577.736 506.277 522.254 456.573 481.52 422.527C480.15 421.382 478.511 423.852 479.76 424.942C520.676 460.598 571.973 506.438 615.119 544.393C616.812 545.87 619.291 543.332 617.57 541.8Z" fill="white"/>
<path d="M349.53 392.673C348.478 391.312 346.525 393.318 347.422 394.569C377.604 436.14 424.646 499.917 455.484 541.829C457.155 544.087 461.507 543.764 459.104 540.539C427.908 498.231 382.238 434.837 349.53 392.673Z" fill="white"/>
<path d="M426.047 410.359C424.855 409.104 422.757 411.22 423.92 412.487C463.383 455.496 506.628 502.029 545.429 545.193C548.653 548.779 550.793 545.712 549.42 544.119C513.079 501.923 466.566 452.958 426.047 410.359Z" fill="white"/>
<path d="M245.284 211.883C246.168 207.826 247.226 203.81 248.454 199.847C236.465 200.115 220.222 197.59 212.82 192.82C211.681 197.115 210.789 201.474 210.148 205.875C221.325 210.331 233.289 212.377 245.284 211.883Z" fill="white"/>
<path d="M240.501 239.669C240.963 235.118 241.673 230.596 242.628 226.124C230.717 226.03 218.899 223.972 207.634 220.032C206.488 224.55 205.804 229.177 205.596 233.839C212.884 237.738 227.634 240.527 240.501 239.669Z" fill="white"/>
<path d="M239.113 253.834C226.817 254.145 214.569 252.164 202.975 247.987C202.395 252.386 201.602 257.858 201.215 261.667C209.584 265.818 226.233 268.82 238.133 268.981C238.384 263.454 238.869 258.142 239.113 253.834Z" fill="white"/>
<path d="M171.871 320.31C174.99 318.272 174.242 307.468 173.909 304.214C173.7 302.141 175.253 302.624 175.669 304.214C176.319 306.672 176.587 309.219 176.461 311.761C190.84 323.619 221.38 334.184 225.244 339.644C229.327 345.417 239.148 378.56 248.097 399.129C255.584 402.706 287.95 410.307 293.26 411.326C293.26 403.528 291.763 382.817 290.955 376.935C283.731 376.487 251.964 375.055 248.309 369.975C245.865 366.595 237.116 325.425 237.883 283.8C227.882 280.759 169.728 255.239 148.384 262.125C128.993 268.378 125.798 287.925 130.119 315.508C131.317 323.145 169.753 321.694 171.871 320.31Z" fill="white"/>
<path d="M344.874 324.084C344.313 323.494 341.358 323.761 341.85 322.297C343.161 319.886 344.709 317.617 346.471 315.525C346.823 314.576 346.189 314.373 345.52 314.631C343.054 316.801 341.076 319.484 339.719 322.5C338.835 325.983 346.757 326.067 344.874 324.084Z" fill="white"/>
<path d="M341.323 330.45C342.816 331.669 347.454 332.385 348.931 330.882C349.964 329.821 349.229 328.302 348.122 328.86C345.434 330.201 344.607 329.379 341.706 328.86C340.847 328.86 340.267 329.595 341.323 330.45Z" fill="white"/>
<path d="M353.699 312.048C354.224 312.362 354.652 312.821 354.933 313.371C355.213 313.922 355.335 314.542 355.284 315.16C355.284 316.947 357.585 317.253 357.446 314.464C357.49 313.433 357.235 312.412 356.713 311.528C356.191 310.644 355.425 309.935 354.51 309.491C354.204 309.462 353.897 309.54 353.641 309.713C353.384 309.885 353.193 310.141 353.098 310.439C353.004 310.737 353.012 311.058 353.121 311.351C353.23 311.643 353.434 311.889 353.699 312.048Z" fill="white"/>
<path d="M341.091 314.892C342.023 315.215 343.928 313.68 343.501 312.335C342.692 309.855 339.316 314.247 341.091 314.892Z" fill="white"/>
<path d="M346.753 308.149C347.005 308.302 347.306 308.351 347.592 308.285C347.878 308.219 348.129 308.044 348.292 307.795C348.455 307.547 348.518 307.244 348.467 306.95C348.417 306.655 348.257 306.392 348.021 306.214C346.052 304.427 341.925 306.408 342.749 307.698C343.38 308.701 344.784 307.146 346.753 308.149Z" fill="white"/>
<path d="M351.622 316.002C350.113 314.531 347.501 319.394 349.673 319.346C350.551 319.323 352.469 316.821 351.622 316.002Z" fill="white"/>
<path d="M352.801 342.595C353.733 342.118 353.556 340.183 352.415 340.412C346.16 341.666 334.412 342.969 335.046 331.865C336.062 321.728 339.152 311.92 344.116 303.069C344.75 302.012 343.079 301.27 342.359 302.266C336.859 311.177 333.376 321.22 332.162 331.669C330.83 344.953 347.663 345.23 352.801 342.595Z" fill="white"/>
<path d="M343.025 382.656C340.936 379.812 334.237 388.558 336.399 395.556C336.446 395.836 336.595 396.088 336.817 396.261C337.039 396.434 337.317 396.515 337.595 396.488C337.873 396.461 338.131 396.328 338.317 396.116C338.502 395.903 338.602 395.627 338.596 395.343C337.946 385.71 344.803 385.065 343.025 382.656Z" fill="white"/>
<path d="M338.299 378.328C332.707 376.825 329.369 390.715 333.024 390.561C335.046 390.477 333.198 383.246 338.299 380.957C338.565 380.859 338.795 380.681 338.957 380.446C339.12 380.211 339.207 379.93 339.207 379.642C339.207 379.355 339.12 379.074 338.957 378.839C338.795 378.604 338.565 378.425 338.299 378.328Z" fill="white"/>
<path d="M346.931 390.08C348.988 388.919 347.226 387.177 345.488 387.61C340.543 388.803 339.066 400.606 345.488 399.845C345.714 399.812 345.921 399.702 346.077 399.533C346.233 399.365 346.328 399.147 346.346 398.916C346.364 398.685 346.305 398.455 346.178 398.263C346.051 398.071 345.864 397.928 345.647 397.859C342.439 396.84 344.328 391.547 346.931 390.08Z" fill="white"/>
<path d="M355.991 373.571C353.231 371.586 350.157 370.098 346.902 369.173C344.792 368.515 342.562 368.355 340.382 368.705C338.202 369.054 336.129 369.904 334.319 371.19C332.51 372.476 331.012 374.163 329.939 376.125C328.866 378.088 328.246 380.272 328.126 382.514C328.101 383.64 329.997 384.298 330.307 383.085C331.693 377.706 336.647 369.434 346.585 372.356C350.104 373.391 352.881 375.397 354.777 375.826C355.062 375.923 355.372 375.915 355.652 375.803C355.932 375.691 356.164 375.483 356.309 375.214C356.454 374.946 356.501 374.634 356.443 374.334C356.384 374.034 356.225 373.764 355.991 373.571Z" fill="white"/>
<path d="M393.973 386.555C389.149 381.769 369.361 374.374 361.151 372.533C358.932 372.033 356.32 372.281 358.866 375.2C365.234 382.492 366.508 389.341 360.625 397.717C359.522 399.281 361.424 400.584 362.663 399.2C365.383 396.079 366.97 392.104 367.158 387.938C367.347 383.771 366.126 379.665 363.7 376.303C373.851 379.351 383.716 383.307 393.181 388.126C394.449 388.735 394.801 387.377 393.973 386.555Z" fill="white"/>
<path d="M314.705 350.322C321.621 347.388 329.067 345.968 336.559 346.156C337.375 349.78 339.358 353.024 342.191 355.372C345.025 357.72 348.548 359.04 352.203 359.12C360.676 359.626 368.024 354.811 374.003 349.106C396.855 357.062 416.579 386.126 417.302 405.621C417.704 416.496 415.666 424.92 403.553 424.971C391.441 425.023 379.569 417.531 371.911 412.291C370.921 411.617 369.476 413.126 370.487 414.08C377.664 420.853 394.658 429.161 405.135 428.27C415.349 427.396 419.432 420.472 420.326 410.133C422.355 386.652 401.078 359.891 383.072 349.88C379.801 348.062 374.789 344.24 371.384 347.107C366.103 351.554 359.918 356.266 352.818 356.05C344.801 355.808 340.984 351.557 338.578 344.337C338.09 342.869 336.33 343.124 334.774 343.101C328.726 343.021 318.265 344.801 313.678 348.378C313.467 348.537 313.319 348.769 313.262 349.03C313.205 349.292 313.242 349.565 313.367 349.801C313.491 350.036 313.695 350.219 313.94 350.315C314.186 350.41 314.457 350.413 314.705 350.322Z" fill="white"/>
<path d="M411.2 327.983C414.718 328.205 414.138 326.625 413.276 326.37C412.414 326.115 411.393 326.622 411.057 325.941C410.721 325.261 413.812 320.036 414.306 319.307C415.092 318.156 413.843 315.876 409.703 324.261C408.613 326.464 408.809 327.831 411.2 327.983Z" fill="white"/>
<path d="M409.389 314.176C410.322 313.914 411.308 313.914 412.242 314.176C412.454 314.194 412.666 314.149 412.855 314.049C413.043 313.948 413.2 313.796 413.306 313.608C413.413 313.421 413.465 313.207 413.457 312.99C413.448 312.774 413.38 312.565 413.259 312.386C412.435 310.742 409.868 311.419 408.936 312.567C408.181 313.486 408.476 314.55 409.389 314.176Z" fill="white"/>
<path d="M408.296 321.026C409.614 321.655 410.464 319.24 410.248 318.343C409.592 315.582 406.663 320.243 408.296 321.026Z" fill="white"/>
<path d="M421.609 317.056C423.898 318.798 423.457 313.447 419.659 312.512C418.043 312.351 417.041 314.302 418.832 315.034C420.623 315.766 420.683 316.353 421.609 317.056Z" fill="white"/>
<path d="M413.291 334.581C415.054 334.945 418.877 335.29 420.639 333.046C421.866 331.485 420.747 329.466 418.883 331.578C417.124 333.365 413.38 332.83 413.012 332.972C412.026 333.352 412.223 334.361 413.291 334.581Z" fill="white"/>
<path d="M428.498 339.593C429.027 338.2 427.195 337.429 426.336 338.448C419.609 346.433 409.398 344.001 406.999 337.035C404.279 329.141 407.11 316.966 409.021 309.065C409.079 308.82 409.045 308.561 408.927 308.34C408.808 308.118 408.614 307.949 408.38 307.864C408.146 307.78 407.89 307.786 407.661 307.882C407.432 307.978 407.246 308.157 407.138 308.384C403.946 315.773 401.524 333.327 405.664 340.576C410.514 349.097 425.47 347.555 428.498 339.593Z" fill="white"/>
<path d="M418.636 320.114C418.392 319.059 416.068 318.682 416.28 322.297C416.395 324.245 419.346 323.187 418.636 320.114Z" fill="white"/>
<path d="M444.18 344.956C442.212 343.988 441.666 343.559 439.891 345.404C429.338 356.369 415.739 359.716 413.697 347.852C413.52 346.816 411.624 346.762 411.624 347.852C411.624 359.836 427.446 363.751 441.999 346.726C452.221 352.077 460.834 360.135 466.929 370.051C473.024 379.966 476.376 391.372 476.631 403.064C476.948 416.693 475.256 429.302 458.49 426.313C453.895 425.167 449.393 423.666 445.023 421.824C444.702 421.681 444.338 421.675 444.011 421.805C443.685 421.936 443.423 422.193 443.283 422.52C443.143 422.847 443.137 423.218 443.265 423.55C443.393 423.882 443.646 424.148 443.968 424.291C451.088 428.161 460.566 431.447 468.58 428.977C476.593 426.506 479.091 417.602 479.497 409.93C480.946 382.614 468.9 357.272 444.18 344.956Z" fill="white"/>
<path d="M456.397 396.41C448.91 388.825 427.763 379.982 418.725 379.866C418.466 379.881 418.221 379.989 418.033 380.171C417.846 380.353 417.728 380.597 417.7 380.859C417.673 381.122 417.738 381.385 417.884 381.603C418.03 381.821 418.247 381.979 418.497 382.05C431.605 384.895 444.069 390.228 455.237 397.768C456.258 398.433 457.114 397.359 456.397 396.41Z" fill="white"/>
<path d="M390.756 351.27C390.592 351.494 390.511 351.77 390.528 352.049C390.545 352.328 390.658 352.592 390.849 352.794C391.039 352.996 391.293 353.122 391.567 353.151C391.84 353.179 392.114 353.109 392.341 352.951C403.642 343.866 408.071 348.242 408.048 345.324C408.047 345.149 408.009 344.978 407.936 344.82C407.863 344.663 407.757 344.524 407.626 344.412C407.495 344.3 407.341 344.219 407.176 344.174C407.011 344.128 406.838 344.12 406.669 344.15C400.668 344.377 394.977 346.923 390.756 351.27Z" fill="white"/>
<path d="M486.794 355.685C484.702 354.911 484.547 354.782 482.556 356.24C480.819 357.39 478.85 358.125 476.794 358.39C474.739 358.655 472.651 358.443 470.688 357.77C468.725 357.098 466.936 355.981 465.457 354.506C463.978 353.03 462.847 351.232 462.147 349.248C461.285 346.707 461.111 346.136 459.123 346.191C457.091 346.12 455.068 346.504 453.199 347.316C452.073 348.084 452.618 349.106 453.883 349.106C455.749 348.945 457.625 348.945 459.491 349.106C460.203 351.731 461.53 354.142 463.357 356.131C465.185 358.121 467.459 359.63 469.986 360.53C472.512 361.43 475.215 361.694 477.864 361.299C480.512 360.904 483.027 359.862 485.193 358.262C502.194 365.005 525.82 380.35 526.628 409.52C526.876 418.373 524.308 425.968 519.337 429.909C513.631 434.424 507.225 433.101 500.72 432.431C498.961 432.247 498.818 434.333 500.422 434.772C507.444 436.707 516.364 437.152 522.114 431.84C537.508 417.612 531.837 372.358 486.794 355.685Z" fill="white"/>
<path d="M510.069 403.08C505.038 397.807 490.535 391.312 481.45 392.028C479.903 392.15 480.201 393.821 481.45 393.995C491.359 395.432 500.799 399.211 509.013 405.031C510.405 406.002 511.264 404.334 510.069 403.08Z" fill="white"/>
<path d="M484.737 339.967C483.152 339.212 483.152 337.748 482.784 336.229C482.417 334.71 480.851 335.19 480.746 336.551C480.759 337.625 481.078 338.671 481.665 339.563C482.252 340.455 483.082 341.155 484.052 341.576C485.441 342.021 486.278 340.695 484.737 339.967Z" fill="white"/>
<path d="M491.872 337.803C493.635 336.571 494.164 331.675 494.614 329.45C494.642 329.272 494.602 329.09 494.502 328.942C494.402 328.793 494.251 328.688 494.078 328.65C493.905 328.611 493.724 328.641 493.572 328.733C493.42 328.826 493.309 328.974 493.261 329.147C492.835 331.496 492.027 333.757 490.87 335.836C490.401 336.464 489.114 334.674 488.55 335.639C487.691 337.106 490.874 338.503 491.872 337.803Z" fill="white"/>
<path d="M486.988 323.1C488.121 322.724 489.314 322.573 490.503 322.655C490.767 322.652 491.022 322.558 491.226 322.388C491.431 322.218 491.572 321.982 491.627 321.72C491.683 321.457 491.649 321.183 491.531 320.943C491.413 320.703 491.218 320.51 490.979 320.398C490.141 320.201 489.271 320.189 488.428 320.362C487.585 320.535 486.788 320.889 486.091 321.401C484.525 322.823 486.423 323.387 486.988 323.1Z" fill="white"/>
<path d="M487.796 329.934C489.01 330.537 490.785 328.144 489.552 326.909C488.319 325.674 486.595 329.337 487.796 329.934Z" fill="white"/>
<path d="M495.882 333.4C497.236 334.045 498.447 330.772 497.429 330.13C496.412 329.489 494.548 332.755 495.882 333.4Z" fill="white"/>
<path d="M499.839 322.958C498.834 322.458 497.404 323.554 498.52 324.744C499.046 325.297 499.464 325.948 499.75 326.66C500.311 327.695 501.738 327.418 501.386 325.389C501.304 324.898 501.125 324.429 500.859 324.011C500.593 323.593 500.246 323.234 499.839 322.958Z" fill="white"/>
<path d="M382.581 107.196C386.616 102.539 411.817 96.9663 419.353 110.934C419.491 111.255 419.713 111.532 419.994 111.736C420.274 111.94 420.604 112.063 420.947 112.092C421.291 112.121 421.636 112.056 421.946 111.903C422.256 111.749 422.52 111.514 422.71 111.221C431.709 101.349 450.073 99.5302 460.014 107.464C461.086 108.322 462.446 107.193 461.526 106C453.215 95.2216 429.988 97.8596 421.53 106.606C414.132 95.8763 389.104 95.1958 380.71 105.535C379.842 106.609 381.633 108.289 382.581 107.196Z" fill="white"/>
<path d="M447.115 162.54C446.937 162.75 446.84 163.02 446.845 163.297C446.849 163.575 446.954 163.841 447.139 164.045C447.324 164.249 447.577 164.376 447.848 164.402C448.12 164.429 448.392 164.353 448.611 164.188C458.492 156.671 472.526 155.039 481.538 165.027C483.557 167.265 483.922 168.797 486.458 165.617C493.613 156.661 509.142 158.815 516.906 164.582C518.278 165.598 519.033 164.204 518.066 163.043C510.388 153.813 492.101 154.1 484.366 162.363C474.979 152.104 456.479 151.233 447.115 162.54Z" fill="white"/>
<path d="M366.134 306.898C364.32 312.557 363.68 318.537 364.254 324.461C364.888 327.364 367.558 322.204 371.286 324.461C373.692 325.928 368.245 336.306 362.882 335.371C359.981 334.862 360.79 338.948 366.397 337.713C366.143 340.249 366.43 342.811 367.241 345.224C367.786 346.117 369.586 347.013 369.174 343.65C368.886 341.273 369.054 338.606 368.93 336.21C372.604 333.385 375.961 327.106 374.116 323.513C381.147 318.524 389.567 303.679 378.158 303.195C383.75 299.045 378.158 286.425 369.368 293.198C370.477 286.242 359.455 277.692 352.884 286.167C348.763 272.432 332.279 283.113 339.135 294.63C344.166 303.053 361.116 306.949 366.134 306.898Z" fill="white"/>
<path d="M433.475 297.455C431.573 284.232 402.745 277.637 398.313 291.534C393.881 305.43 419.409 308.649 427.217 308.9C426.817 313.116 427.921 317.337 430.327 320.794C430.682 321.439 431.433 322.084 432.172 321.581C434.169 320.194 438.195 319.704 437.307 324.335C436.42 328.966 431.896 330.114 432.032 332.075C432.118 333.294 433.034 333.094 434.527 332.594C434.154 336.313 434.446 340.069 435.389 343.682C436.223 345.681 438.055 345.472 437.64 343.146C436.894 338.899 436.681 334.571 437.006 330.269C439.431 327.425 441.241 322.49 438.762 319.394C452.653 305.949 448.31 287.867 433.475 297.455Z" fill="white"/>
<path d="M516.076 314.318C523.826 301.673 500.587 290.514 480.721 295.845C474.698 279.337 451.382 303.982 452.295 344.562C455.911 344.108 459.562 344.023 463.194 344.311C462.493 347.155 464.687 346.839 464.953 346.101C466.667 341.215 468.664 336.437 470.932 331.791C471.131 331.502 471.265 331.171 471.324 330.823C471.384 330.475 471.368 330.118 471.277 329.777C471.187 329.436 471.024 329.119 470.8 328.849C470.576 328.579 470.296 328.363 469.981 328.215C465.34 325.193 474.061 313.122 476.222 321.903C476.663 323.69 483.64 319.417 485.786 313.567C492.681 316.518 508.344 326.944 516.076 314.318Z" fill="white"/>
<path d="M500.821 334.978C502.662 331.921 504.082 328.623 505.041 325.174C505.706 322.716 503.798 322.513 502.895 325.174C500.936 330.979 490.379 348.961 483.453 349.516C478.793 349.89 475.468 346.588 472.589 343.543C472.519 343.449 472.431 343.37 472.329 343.312C472.228 343.254 472.116 343.217 472.001 343.204C471.885 343.191 471.768 343.202 471.657 343.237C471.545 343.272 471.442 343.329 471.354 343.406C471.265 343.482 471.192 343.577 471.141 343.683C471.089 343.789 471.059 343.904 471.053 344.023C471.047 344.141 471.064 344.259 471.104 344.37C471.144 344.481 471.206 344.583 471.287 344.669C474.044 348.861 479.253 353.022 484.509 352.057C493.299 354.637 511.669 364.183 522.007 377.857C530.654 370.295 527.988 358.875 517.768 354.84C509.076 351.399 501.208 344.956 500.821 334.978Z" fill="white"/>
</svg>
