<svg width="177" height="191" viewBox="0 0 177 191" fill="none" xmlns="http://www.w3.org/2000/svg">
<rect width="176" height="190" transform="translate(0.256836 0.200195)" fill="white"/>
<path d="M88.2554 31.8636C96.0351 31.8636 103.496 35.1999 108.997 41.1386C114.498 47.0772 117.589 55.1318 117.589 63.5303C117.589 71.9288 114.498 79.9834 108.997 85.922C103.496 91.8607 96.0351 95.197 88.2554 95.197C80.4757 95.197 73.0147 91.8607 67.5136 85.922C62.0125 79.9834 58.9221 71.9288 58.9221 63.5303C58.9221 55.1318 62.0125 47.0772 67.5136 41.1386C73.0147 35.1999 80.4757 31.8636 88.2554 31.8636V31.8636ZM88.2554 111.03C120.669 111.03 146.922 125.201 146.922 142.697V158.53H29.5887V142.697C29.5887 125.201 55.8421 111.03 88.2554 111.03Z" fill="black"/>
</svg>
